<svg width="20" height="32" viewBox="0 0 20 32" fill="none" xmlns="http://www.w3.org/2000/svg">
<path d="M19.7271 31.1232L19.8504 30.8914C19.0244 30.3644 18.2022 29.8299 17.3799 29.2992C16.675 28.7488 16.0332 28.1221 15.4662 27.4304C14.6963 26.5819 13.9226 25.7298 13.1489 24.8851C13.0816 24.8141 12.9957 24.7318 12.9882 24.6646C12.2227 23.8586 11.5917 22.9348 11.1194 21.9286C10.6247 21.1492 10.1778 20.3403 9.7813 19.5066C9.74019 19.4169 9.83363 19.26 9.86353 19.1329C10.0298 19.0951 10.1897 19.0334 10.3382 18.9497C10.8272 18.5216 11.1838 17.9627 11.3661 17.3388C12.1547 15.3205 12.8312 13.276 12.7564 11.0671C12.7367 10.9488 12.7028 10.8334 12.6555 10.7232C12.5502 10.7791 12.4533 10.8495 12.3677 10.9325C11.8445 11.624 11.3137 12.3117 10.8204 13.0256C10.0871 14.0381 9.57743 15.1949 9.32531 16.4194C9.21319 16.9987 9.19823 17.593 9.14217 18.1798C9.1087 18.1322 9.07873 18.0822 9.05247 18.0303C8.73851 17.2828 8.43576 16.5352 8.11059 15.7877C8.0657 15.7004 8.05235 15.6003 8.07278 15.5042C8.09321 15.4082 8.14617 15.3222 8.22272 15.2607C8.59912 14.908 8.94081 14.52 9.24309 14.102C10.055 12.7658 10.6445 11.3066 10.9886 9.78135C11.1126 9.23408 11.1938 8.67799 11.2315 8.11811C11.2315 7.94618 11.1119 7.76304 11.0484 7.58363C10.8712 7.64949 10.7068 7.7456 10.5625 7.86769C10.1588 8.35358 9.77383 8.85816 9.40754 9.36274C8.661 10.3041 8.13252 11.3994 7.86017 12.5696C7.75925 13.1377 7.7144 13.7171 7.63965 14.2927H7.60227L6.91829 11.5866L7.11264 11.8744C7.18941 11.7195 7.27813 11.5708 7.37801 11.4296C7.82279 10.8727 8.39465 10.3831 8.70113 9.75892C9.15201 8.79287 9.52691 7.79315 9.82242 6.76883C9.937 6.28999 9.99718 5.79975 10.0018 5.30742C10.0018 5.18408 9.91586 5.057 9.86727 4.93366C9.76635 4.97477 9.62432 4.98972 9.572 5.06447C8.84316 6.06989 8.07695 7.05289 7.42287 8.09942C7.13714 8.65956 6.9044 9.24517 6.72767 9.84863C6.61766 9.48953 6.63751 9.10318 6.78373 8.75724C7.39658 7.20666 7.80735 5.58367 8.00593 3.92824C8.11886 2.76188 8.17001 1.59037 8.15918 0.418613C8.13817 0.273465 8.09533 0.13233 8.0321 0C7.89754 0.0672772 7.71814 0.104653 7.62843 0.213044C6.86636 1.09526 6.31543 2.1396 6.01752 3.26668C5.61386 5.01589 5.79326 6.76509 6.12591 8.49935C6.27915 9.29546 6.44361 10.0878 6.60433 10.8914C5.80821 10.5887 5.10928 10.2822 4.39166 10.0579C3.1412 9.72072 1.82915 9.68104 0.560596 9.94207C0.401238 9.99572 0.253034 10.0781 0.123295 10.185C0.202301 10.3448 0.304301 10.4921 0.426042 10.6223C1.28885 11.3235 2.36418 11.7109 3.47594 11.7212C4.3587 11.7447 5.24014 11.6389 6.09227 11.4072C6.55574 11.2764 6.61554 11.3287 6.72019 11.781C6.84727 12.3304 6.97435 12.8798 7.11638 13.4255C7.2173 13.8292 7.34064 14.2329 7.46398 14.6851C7.35559 14.6253 7.29579 14.5991 7.23972 14.5618C6.38924 13.9552 5.34271 13.6886 4.30569 13.8142C3.22178 13.9899 2.15656 14.2852 1.08386 14.5356C0.911534 14.5741 0.743683 14.6305 0.583022 14.7038C0.528907 14.7213 0.481735 14.7555 0.448277 14.8015C0.414819 14.8475 0.396797 14.9029 0.396797 14.9598C0.396797 15.0167 0.414819 15.0721 0.448277 15.1181C0.481735 15.1641 0.528907 15.1983 0.583022 15.2158C1.11467 15.485 1.67024 15.7039 2.24252 15.8699C2.93339 15.9918 3.63119 16.0705 4.33185 16.1054C5.48477 16.2165 6.64639 16.0165 7.69571 15.5261L8.9665 18.5535C7.57522 18.0275 6.0652 17.8981 4.6047 18.1798C3.48341 18.4227 2.36213 18.8152 1.27074 19.159C1.13245 19.2039 1.02406 19.3459 0.896982 19.4394C1.01285 19.5627 1.10629 19.7458 1.24832 19.8131C1.93449 20.1196 2.6445 20.3696 3.37129 20.5606C4.06516 20.6656 4.76637 20.7143 5.46809 20.7064C6.69369 20.7127 7.90316 20.427 8.9964 19.8729C9.14518 19.7984 9.2899 19.7161 9.42997 19.6262L11.908 23.8161C11.5342 23.6703 11.0969 23.4797 10.6559 23.3452C8.7871 22.7696 6.8398 22.7696 4.90371 22.9714C4.19356 23.0387 3.49089 23.1919 2.78822 23.319C2.48547 23.3751 2.41446 23.5283 2.60507 23.7152C3.20797 24.3571 3.93038 24.8751 4.73178 25.2401C6.08356 25.7899 7.52965 26.0705 8.98893 26.0662C10.2316 26.1389 11.4647 25.81 12.506 25.128C12.5843 25.0955 12.6695 25.0833 12.7538 25.0925C12.8381 25.1016 12.9187 25.1318 12.9882 25.1803C13.7992 26.0736 14.5804 26.9931 15.4102 27.9499L14.7523 27.7331C13.9103 27.4311 13.0291 27.2523 12.136 27.2024C10.4523 27.1662 8.78151 27.5032 7.24346 28.1891C6.82111 28.3611 6.38007 28.4956 5.95398 28.6526C5.85547 28.6962 5.7605 28.7475 5.66992 28.8058C5.74467 28.9142 5.797 29.0824 5.89418 29.1198C6.69029 29.4039 7.47519 29.7963 8.29747 29.8972C10.0803 30.1177 11.8818 30.3569 13.6871 30.0131C14.6103 29.8412 15.5372 29.6842 16.2848 29.0413C16.3415 28.9993 16.4015 28.9618 16.4642 28.9292C16.5988 29.0823 16.7464 29.2236 16.9052 29.3515C17.72 29.9047 18.5348 30.4728 19.3646 30.9849L19.686 31.183C19.7056 31.1678 19.7199 31.1469 19.7271 31.1232ZM9.63554 6.04747C9.26177 7.76677 8.88801 9.50477 7.49762 10.7756C8.03935 9.12831 8.75477 7.54336 9.6318 6.04747H9.63554ZM9.21692 5.92039C8.51799 7.52757 7.72187 9.3291 6.97435 11.1082C6.95566 8.97029 8.05079 7.322 9.21318 5.92039H9.21692ZM1.25206 10.1588C2.64834 9.96944 4.06984 10.1646 5.36344 10.7232L1.25206 10.2523V10.1588ZM0.792329 10.484L5.83438 11.097C4.63834 11.8146 1.59592 11.4035 0.792329 10.484ZM6.30905 7.89012C5.64002 5.27378 6.30905 1.8875 7.7742 0.538217C6.82858 2.88918 6.68282 5.39339 6.30905 7.89012ZM7.8041 1.27079C8.14049 2.18277 7.3967 6.73519 6.63797 8.14427C6.84353 5.83816 6.99304 3.52084 7.79663 1.27079H7.8041ZM6.38754 14.4459C6.67908 14.5805 6.94819 14.7561 7.22851 14.9131L7.19113 15.0439C5.27651 14.7861 3.34336 14.6923 1.41277 14.7636C3.04985 14.3113 4.67571 13.6573 6.38754 14.4459ZM1.26327 15.1934C1.88371 14.943 6.24925 15.0551 7.33316 15.3504C6.15581 16.0718 2.18272 15.9409 1.26327 15.1897V15.1934ZM8.22272 14.8197C8.93618 12.7067 9.84199 10.6636 10.9288 8.71613C10.4242 10.9101 9.88222 13.1041 8.22272 14.8047V14.8197ZM10.839 7.98356L8.0321 14.0759C7.94239 11.5866 9.45239 9.81499 10.839 7.9686V7.98356ZM1.28196 19.5702C3.60676 18.3517 7.31447 17.9144 9.0263 19.0506C8.9013 19.0495 8.77649 19.0407 8.65254 19.0245C7.34811 18.7853 6.05863 18.9759 4.77289 19.1702C3.80859 19.316 2.84428 19.458 1.87998 19.5889C1.68371 19.5914 1.48754 19.5789 1.29317 19.5515L1.28196 19.5702ZM2.2201 19.8094C4.52621 19.5291 6.80616 18.8937 9.17955 19.3235C8.17413 20.299 4.42903 20.9307 2.2201 19.8094ZM12.4612 11.8296C12.4724 11.9464 12.4724 12.0641 12.4612 12.1809C12.2593 13.1788 12.0874 14.1917 11.8258 15.171C11.558 16.0808 11.2284 16.9712 10.839 17.8359C10.6293 18.1861 10.3784 18.5098 10.0915 18.8002C10.013 18.9011 9.94202 19.0058 9.86727 19.1104C9.8411 18.9609 9.75888 18.7928 9.80373 18.6694C10.4017 17.0273 11.0085 15.389 11.6239 13.7544C11.8632 13.1078 12.1136 12.465 12.3715 11.8184L12.4612 11.8296ZM11.8407 12.2594C11.0745 14.2702 10.312 16.2848 9.52341 18.3554C9.344 15.9223 10.3756 14.0086 11.8407 12.2594ZM11.6202 24.1002L3.78242 23.547C5.26252 22.9901 9.81868 22.9378 11.6202 24.1002ZM10.4989 25.5952C8.31176 25.9623 6.06462 25.5915 4.11133 24.5412C3.80915 24.3467 3.52518 24.1253 3.26289 23.8797L3.30401 23.7974C6.30905 24.0267 9.31908 24.2584 12.3341 24.4926C12.3976 24.4926 12.4537 24.5898 12.5509 24.6758C11.9732 25.1737 11.2626 25.492 10.5064 25.5915L10.4989 25.5952ZM15.6755 28.4059C12.9246 28.5928 10.17 28.4844 7.34064 28.4807C10.1513 27.251 12.906 27.109 15.6755 28.4059ZM15.47 29.1945C14.1465 29.6833 12.7376 29.8982 11.3287 29.8262C10.7307 29.7851 10.1364 29.7216 9.53836 29.7178C8.47644 29.679 7.43465 29.4166 6.48099 28.9479C9.68412 28.6302 12.8985 29.0151 16.1016 28.6675C16.1016 28.7087 16.1203 28.746 16.1278 28.7834C15.9253 28.9498 15.7046 29.0928 15.47 29.2095V29.1945Z" fill="#AE7C78"/>
</svg>
